name C:\Users\antoi\Documents\MyRepositories\upper-imu-dc\Results\main_tracking\Case_71\SHRUG01_orientations_groundFrame.mot
datacolumns 13
datarows 25
range 1.21000000 1.45000000
endheader 
time	radius_imu_[0][0]	radius_imu_[0][1]	radius_imu_[0][2]	radius_imu_[1][0]	radius_imu_[1][1]	radius_imu_[1][2]	radius_imu_[2][0]	radius_imu_[2][1]	radius_imu_[2][2]	radius_imu_x	radius_imu_y	radius_imu_z	
          1.21000000	          0.47484298	         -0.13051226	          0.87033942	         -0.28736196	          0.91174562	          0.29350134	         -0.83183367	         -0.38946949	          0.39543175	         -0.63850979	          1.05589114	          0.26823001	
          1.22000000	          0.46920854	         -0.13448907	          0.87278636	         -0.29060083	          0.90977427	          0.29641513	         -0.83390317	         -0.39271295	          0.38779122	         -0.65263328	          1.06088207	          0.27914572	
          1.23000000	          0.46352549	         -0.13850662	          0.87519143	         -0.29381340	          0.90780262	          0.29927929	         -0.83595323	         -0.39586655	          0.38009455	         -0.66699903	          1.06583138	          0.29036582	
          1.24000000	          0.45781821	         -0.14254707	          0.87754363	         -0.29698514	          0.90584013	          0.30208191	         -0.83797513	         -0.39891601	          0.37237575	         -0.68155034	          1.07071513	          0.30184753	
          1.25000000	          0.45210654	         -0.14659063	          0.87983570	         -0.30010394	          0.90389666	          0.30480888	         -0.83996268	         -0.40184825	          0.36466517	         -0.69622734	          1.07551640	          0.31354356	
          1.26000000	          0.44640652	         -0.15061563	          0.88206357	         -0.30316012	          0.90198228	          0.30744415	         -0.84191161	         -0.40465157	          0.35699012	         -0.71096727	          1.08022445	          0.32540220	
          1.27000000	          0.44073153	         -0.15459869	          0.88422563	         -0.30614605	          0.90010725	          0.30997023	         -0.84381889	         -0.40731584	          0.34937587	         -0.72570444	          1.08483343	          0.33736727	
          1.28000000	          0.43509388	         -0.15851512	          0.88632176	         -0.30905564	          0.89828181	          0.31236903	         -0.84568193	         -0.40983259	          0.34184693	         -0.74037026	          1.08934061	          0.34937816	
          1.29000000	          0.42950609	         -0.16234001	          0.88835254	         -0.31188388	          0.89651582	          0.31462330	         -0.84749806	         -0.41219547	          0.33442777	         -0.75489467	          1.09374466	          0.36137112	
          1.30000000	          0.42398195	         -0.16604934	          0.89031844	         -0.31462680	          0.89481817	          0.31671820	         -0.84926397	         -0.41440084	          0.32714318	         -0.76920824	          1.09804404	          0.37328093	
          1.31000000	          0.41853731	         -0.16962084	          0.89221931	         -0.31728112	          0.89319642	          0.31864219	         -0.85097545	         -0.41644799	          0.32001853	         -0.78324312	          1.10223585	          0.38504167	
          1.32000000	          0.41318947	         -0.17303466	          0.89405451	         -0.31984319	          0.89165717	          0.32038699	         -0.85262817	         -0.41833778	          0.31307940	         -0.79693354	          1.10631607	          0.39658877	
          1.33000000	          0.40795665	         -0.17627387	          0.89582303	         -0.32230860	          0.89020613	          0.32194753	         -0.85421808	         -0.42007211	          0.30635093	         -0.81021663	          1.11027971	          0.40786032	
          1.34000000	          0.40285697	         -0.17932500	          0.89752371	         -0.32467233	          0.88884799	          0.32332202	         -0.85574186	         -0.42165364	          0.29985674	         -0.82303455	          1.11412141	          0.41879931	
          1.35000000	          0.39790756	         -0.18217824	          0.89915553	         -0.32692954	          0.88758613	          0.32451184	         -0.85719697	         -0.42308622	          0.29361779	         -0.83533649	          1.11783602	          0.42935500	
          1.36000000	          0.39312399	         -0.18482741	          0.90071769	         -0.32907598	          0.88642250	          0.32552135	         -0.85858169	         -0.42437481	          0.28765169	         -0.84707997	          1.12141881	          0.43948408	
          1.37000000	          0.38851951	         -0.18727004	          0.90220980	         -0.33110850	          0.88535748	          0.32635762	         -0.85989520	         -0.42552564	          0.28197195	         -0.85823229	          1.12486598	          0.44915179	
          1.38000000	          0.38410506	         -0.18950660	          0.90363187	         -0.33302542	          0.88438998	          0.32702973	         -0.86113726	         -0.42654615	          0.27658815	         -0.86876988	          1.12817463	          0.45833100	
          1.39000000	          0.37988995	         -0.19154020	          0.90498397	         -0.33482620	          0.88351758	          0.32754861	         -0.86230797	         -0.42744477	          0.27150677	         -0.87867703	          1.13134203	          0.46700130	
          1.40000000	          0.37587958	         -0.19337619	          0.90626718	         -0.33651211	          0.88273684	          0.32792572	         -0.86340845	         -0.42823046	          0.26672932	         -0.88794791	          1.13436793	          0.47515106	
          1.41000000	          0.37208431	         -0.19502195	          0.90747987	         -0.33808355	          0.88204301	          0.32817624	         -0.86443784	         -0.42891325	          0.26226065	         -0.89657649	          1.13724569	          0.48276769	
          1.42000000	          0.36851010	         -0.19648601	          0.90862179	         -0.33954258	          0.88143089	          0.32831450	         -0.86539652	         -0.42950300	          0.25810081	         -0.90456458	          1.13997197	          0.48984597	
          1.43000000	          0.36516607	         -0.19777850	          0.90969083	         -0.34089002	          0.88089475	          0.32835718	         -0.86628386	         -0.43000943	          0.25425216	         -0.91191384	          1.14253898	          0.49638085	
          1.44000000	          0.36206482	         -0.19891044	          0.91068309	         -0.34212539	          0.88042852	          0.32832277	         -0.86709819	         -0.43044194	          0.25071988	         -0.91862361	          1.14493462	          0.50236553	
          1.45000000	          0.35922257	         -0.19989365	          0.91159293	         -0.34324670	          0.88002599	          0.32823156	         -0.86783688	         -0.43080945	          0.24751237	         -0.92469008	          1.14714242	          0.50779076	
